<svg xmlns="http://www.w3.org/2000/svg" viewBox="0 0 274.73 431.18"><defs><style>.cls-1{fill:#1B81E0;}</style></defs><g id="Layer_2" data-name="Layer 2"><g id="Layer_1-2" data-name="Layer 1"><path class="cls-1" d="M128.22,84.57V282.35q0,12.82-13,12.83H78.64q-13,0-13-12.83V84.57H2.82V295.18q0,26.06,18.37,44.42A60.53,60.53,0,0,0,65.62,358h62.6q25.67,0,44.13-18.38a60.31,60.31,0,0,0,18.47-44.42V84.57Zm50.17,210.61a48,48,0,0,1-14.81,35.61c-10,9.92-21.55,14.75-35.36,14.75H65.62c-14.07,0-25.72-4.82-35.63-14.73s-14.73-21.57-14.73-35.63V97H53.18V282.35c0,15.35,10,25.27,25.46,25.27h36.55c15.47,0,25.47-9.92,25.47-25.27V97h37.73Z"/><path class="cls-1" d="M209,84.57V358h62.8V84.57Zm50.36,261H221.46V97h37.92Z"/><path class="cls-1" d="M271.82,377.28H2.82v53.9h269ZM13.49,420.51V388H261.14v32.55Z"/><path class="cls-1" d="M33.58,3a1.61,1.61,0,0,1,.88-.33,3.13,3.13,0,0,1,.89.13c.26.08.54.14.84.2a2.84,2.84,0,0,0,.92,0,2.09,2.09,0,0,1,1,.88,3.84,3.84,0,0,1,.44,1.2c.08.43.16.84.24,1.24a1.86,1.86,0,0,0,.52,1c.16,1.18.35,2.22.56,3.13a11.2,11.2,0,0,1,.32,2.64,1.72,1.72,0,0,0,0,1,1,1,0,0,1-.24,1,3.42,3.42,0,0,1,.49,1.48c.05.56.08,1.14.08,1.72a15.87,15.87,0,0,1,.28,4.05,17.77,17.77,0,0,0,.28,4.29.52.52,0,0,0-.4.16l-.16.16c.42,0,.56.2.4.6s-.11.68.16.84c.1,1.23.14,2.37.12,3.41s0,2.07,0,3.08,0,2,.08,3a22.5,22.5,0,0,0,.4,3.21l-.24.32.24.32a45.16,45.16,0,0,1,.08,6A25.76,25.76,0,0,0,42,53.22a1,1,0,0,0,0,1,.73.73,0,0,1-.36,1,.25.25,0,0,0,.16.24.34.34,0,0,1,.16.32v.88a1.54,1.54,0,0,1,.12,1c-.08.29-.18.57-.28.84a8.46,8.46,0,0,0-.28.8,1,1,0,0,0,.12.8c-.59.75-1.2,1.5-1.85,2.25a4.86,4.86,0,0,1-2.48,1.52A24.6,24.6,0,0,1,33,63.8a11.82,11.82,0,0,1-4-1.12,3,3,0,0,1-1.68-2.25c-.11-.91-.21-1.87-.32-2.88a10,10,0,0,0-.2-1.89A10.77,10.77,0,0,0,26.37,54a14.73,14.73,0,0,0,.08-2.64c-.05-.86-.12-1.7-.2-2.53s-.14-1.66-.16-2.48,0-1.73,0-2.69l-.32-.56c-1.44,0-2.82,0-4.13-.12a22,22,0,0,0-4,.12c-.1,2.19-.18,4.44-.24,6.73s-.16,4.38-.32,6.25a9.32,9.32,0,0,0-.24,1.45A5.64,5.64,0,0,1,16.59,59a.24.24,0,0,1-.08.16c-.11.11-.08.24.08.4a1.73,1.73,0,0,0-.56.72c-.11.27-.23.54-.36.8a2.5,2.5,0,0,1-.48.68,1.6,1.6,0,0,1-.92.37,26.79,26.79,0,0,1-2.89.36,18,18,0,0,1-3.12,0,1.07,1.07,0,0,1-.77-.28.91.91,0,0,0-.68-.29,24.63,24.63,0,0,1-3-3.08,4.52,4.52,0,0,1-1-3.89,1.53,1.53,0,0,1-.13-1.4,1,1,0,0,0-.12-1.16c0-3.05-.14-6.13-.44-9.26s-.44-6.29-.44-9.5a5.53,5.53,0,0,1,.08-2.48,4.07,4.07,0,0,0-.08-2.41q.4-.15.24-.48a.26.26,0,0,0-.24-.16q.16-5-.12-9.82C1.29,15,1.15,11.94,1,9.06A1.22,1.22,0,0,0,.8,8.38a7.3,7.3,0,0,1-.44-.77,1.64,1.64,0,0,1-.2-.72c0-.26.19-.5.56-.72a.45.45,0,0,0,0-.52,1.53,1.53,0,0,0-.36-.32A1.77,1.77,0,0,1,0,5.09Q-.08,5,.16,4.73c0-.27.09-.41.28-.44s.28-.17.28-.44A6.92,6.92,0,0,0,2,3.17a2.8,2.8,0,0,1,1.57-.45.83.83,0,0,1,.52-.36,1.8,1.8,0,0,1,.6,0,1.23,1.23,0,0,0,.56,0c.16,0,.27-.14.32-.36a11.83,11.83,0,0,1,9.22,3.21,5.36,5.36,0,0,1,1.08,2.64l.36,2.81a17,17,0,0,0,.16,2.32,17.22,17.22,0,0,1,.16,2.33q0,3.28.28,6.57c.19,2.19.28,4.52.28,7h.32a40,40,0,0,0,4.17-.2,15.16,15.16,0,0,1,4.17.2,2.37,2.37,0,0,0,.2-1.6,6.74,6.74,0,0,1-.2-1.84c.16,0,.2-.07.12-.2a.76.76,0,0,1-.12-.36,4.23,4.23,0,0,1,0-1.57A3.67,3.67,0,0,1,26.13,22a9.93,9.93,0,0,1-.36-2.88c0-.91,0-1.87,0-2.89l.32-.32c-.32,0-.5-.16-.52-.32a2,2,0,0,1,0-.6,4.51,4.51,0,0,1,.12-.72.81.81,0,0,0-.16-.68c0-.59,0-1.17,0-1.73a12.77,12.77,0,0,0-.28-2,8.75,8.75,0,0,0,0-3,17.82,17.82,0,0,1-.28-3.12,1.05,1.05,0,0,1,.72-.68,5.35,5.35,0,0,1,1-.16l1.08-.12a1.68,1.68,0,0,0,1-.49A2.35,2.35,0,0,1,29.86,2a4.85,4.85,0,0,1,1.28.12,9.58,9.58,0,0,1,1.28.4Z"/><path class="cls-1" d="M87.92,30a78.37,78.37,0,0,1-1,13A39.52,39.52,0,0,1,82.79,54.9a12.63,12.63,0,0,0-1.56,1.89l-1.4,2a17.5,17.5,0,0,1-1.57,2,8.42,8.42,0,0,1-2.12,1.65,4.37,4.37,0,0,1-2,1.16,8.74,8.74,0,0,0-2.21.92c-1.39,0-2.91-.08-4.57-.24s-3.17-.38-4.56-.64c-.59-.22-1.21-.42-1.85-.6s-1.27-.4-1.88-.64a8.73,8.73,0,0,1-1.76-.93A5.8,5.8,0,0,1,55.86,60l-.32-.32q-1.84-1.85-3.44-3.57a9.54,9.54,0,0,1-2.25-4,9.6,9.6,0,0,1-.76-1.85c-.19-.64-.36-1.33-.52-2.08a13.9,13.9,0,0,1-.68-1.84c-.19-.65-.36-1.34-.52-2.09-.27-1.23-.48-2.35-.64-3.36a21.79,21.79,0,0,1-.24-3.37,34.23,34.23,0,0,1-.36-6.45q.12-3.33.12-6.45a1.59,1.59,0,0,0,.36-.73c0-.21,0-.42,0-.64a6.23,6.23,0,0,1,0-.76,1.07,1.07,0,0,1,.36-.68,9.48,9.48,0,0,1,.28-2.28,6.3,6.3,0,0,0,0-2.53l.32-.32v-.56c.16-.32.31-.64.44-1a2.4,2.4,0,0,0,.2-.88,13,13,0,0,1,1.6-4.13q1.2-2,2.33-4.05a1,1,0,0,1,.4.12q.24.12.24-.12l-.4-.4a8.58,8.58,0,0,1,2.72-2.4,33.6,33.6,0,0,1,3.37-1.77A12.75,12.75,0,0,0,60.71.88,2.69,2.69,0,0,1,62.84,1a.8.8,0,0,1,.92-.28.88.88,0,0,0,.92-.12A6.21,6.21,0,0,1,67.16,0a10.26,10.26,0,0,1,2.53.32c.83.21,1.65.47,2.48.76a24.55,24.55,0,0,0,2.53.76,4.53,4.53,0,0,1,2.2.68A10.53,10.53,0,0,1,78.67,4c.56.59,1.09,1.2,1.6,1.84a14.47,14.47,0,0,0,1.64,1.76,10,10,0,0,0,1.2,2.09,5.28,5.28,0,0,1,1,2.08,1,1,0,0,0,.08.44c0,.14,0,.2-.08.2a14.24,14.24,0,0,1,1,2.57c.26.91.49,1.81.68,2.72s.37,1.82.56,2.73a17.8,17.8,0,0,0,.76,2.64,5.28,5.28,0,0,0,.08,1.61c.11.48.21,1,.32,1.44s.2,1,.28,1.44a3.33,3.33,0,0,1-.12,1.52ZM72.69,35.19a5.23,5.23,0,0,0,.49-.33h-1a26.56,26.56,0,0,1,.2-3.2,8.5,8.5,0,0,0-.2-3.21c0-.26,0-.61,0-1a2.33,2.33,0,0,1,.28-1l-.32-.24-.6-1.84c-.19-.59-.39-1.15-.6-1.69a6.28,6.28,0,0,0-.8-1.44A4.4,4.4,0,0,0,68.93,20a1.91,1.91,0,0,1-1.2-.44,1.17,1.17,0,0,0-1.21-.2,1.74,1.74,0,0,0-1,.84A5.44,5.44,0,0,0,65,21.56a7.79,7.79,0,0,0-1,2.56c-.22,1-.38,1.82-.48,2.57a4.33,4.33,0,0,0-.92,2.08,2.35,2.35,0,0,0,.28,1.85,24.48,24.48,0,0,0,0,4.69A39.09,39.09,0,0,0,63.48,40a4.52,4.52,0,0,0,.2,1.33,2.16,2.16,0,0,0,.68,1.08q.48,1.13,1.08,2.64a3,3,0,0,0,2,1.93,2.47,2.47,0,0,0,1.41-1c.34-.51.68-1,1-1.41a1.88,1.88,0,0,1,.44-1.24,1.88,1.88,0,0,0,.44-1.24c.27,0,.41-.15.44-.28a2.06,2.06,0,0,0,0-.44,1.61,1.61,0,0,1,.08-.48.5.5,0,0,1,.4-.32,4.13,4.13,0,0,1,.08-2.13,11.67,11.67,0,0,0,.48-2.36.92.92,0,0,1,.08-.4q.24-.41.48-.24h-.24A.26.26,0,0,1,72.69,35.19Z"/><path class="cls-1" d="M115.73,2.64l.64.41.81.48a16.65,16.65,0,0,1,3.2,2.52,6.68,6.68,0,0,1,1.77,3.33,1.08,1.08,0,0,1,.44.72c0,.27,0,.53,0,.8a3.11,3.11,0,0,0,.08.76,1.31,1.31,0,0,0,.4.68c-.16.16-.2.31-.12.44a.86.86,0,0,1,.12.44c.1,1.07.17,2.08.2,3s0,2,0,3.17a2.7,2.7,0,0,0-.2.88c0,.32,0,.61,0,.88A8.65,8.65,0,0,0,121.94,23a2.55,2.55,0,0,1-1.56,1.41,5.78,5.78,0,0,1-2.32.44,10.33,10.33,0,0,1-2.17-.32,18.82,18.82,0,0,1-2-.69,16.53,16.53,0,0,0-2-.64,2.08,2.08,0,0,1-1.17-1.12,7.54,7.54,0,0,1-.4-1.52c-.08-.54-.14-1.07-.2-1.6a2.41,2.41,0,0,0-.56-1.37v-.56a8.13,8.13,0,0,0,0-.84,2.13,2.13,0,0,0-.24-.8.88.88,0,0,0-.68-.44,2.72,2.72,0,0,1-.68-.2.66.66,0,0,0-.84.2,3.37,3.37,0,0,0-.88,1.48,6.27,6.27,0,0,0-.24,1.72q.63,1.13,1.32,2.25c.45.75.89,1.49,1.32,2.24A9.35,9.35,0,0,0,111,25.41,28.88,28.88,0,0,1,114,28c1.12,1.12,2.3,2.21,3.53,3.25s2.4,2.14,3.52,3.28a28.19,28.19,0,0,1,3,3.69,14,14,0,0,1,2,4.29,22.89,22.89,0,0,1,.36,4.53,17.2,17.2,0,0,1-.68,4.53,32.07,32.07,0,0,1-1.24,4.32,9,9,0,0,1-2.61,3.69c.11.43,0,.68-.24.76a1.26,1.26,0,0,0-.64.44c-.32.27-.67.55-1,.84a7.1,7.1,0,0,0-1,.93,5.09,5.09,0,0,1-2,1.24,9.11,9.11,0,0,1-2.29.44,20.52,20.52,0,0,1-2.48,0c-.86,0-1.69-.14-2.49-.24a15.61,15.61,0,0,1-3.28-.36,29.61,29.61,0,0,0-3.21-.52,13,13,0,0,1-2.92-1,18.47,18.47,0,0,1-2.81-1.68,14.28,14.28,0,0,1-2.4-2.2,9.13,9.13,0,0,1-1.65-2.69,5.32,5.32,0,0,0-.4-2.08,5.32,5.32,0,0,1-.4-2.08,3.57,3.57,0,0,1-.48-1.65,3.59,3.59,0,0,0-.72-1.88,6.83,6.83,0,0,0-.24-1.93,4.44,4.44,0,0,1-.08-1.92.78.78,0,0,0,.28-.6c0-.29,0-.57,0-.84a2,2,0,0,0,.28-.8c0-.27.07-.54.12-.8a2.22,2.22,0,0,1,.28-.73,1,1,0,0,1,.76-.4.68.68,0,0,1,.8-.28,1,1,0,0,0,1-.28,17.61,17.61,0,0,1,3.25,0,31.32,31.32,0,0,1,3.25.56,1.3,1.3,0,0,0,.72.4l.76.16a3.06,3.06,0,0,1,.68.25,1.32,1.32,0,0,1,.56.72,5,5,0,0,0,.52,2.36,3.64,3.64,0,0,1,.28,2.37c.27,1.17.5,2.32.68,3.44a6.42,6.42,0,0,0,1.41,3,3.89,3.89,0,0,0,1.2.12,3.65,3.65,0,0,1,1.2.12,8.11,8.11,0,0,0,2.09-1.12,4.36,4.36,0,0,0,1.44-2.09,9.84,9.84,0,0,0-1.2-6,19.57,19.57,0,0,0-4.09-5.21,24.55,24.55,0,0,0-4.37-3,23.19,23.19,0,0,1-4.53-3.21,17.27,17.27,0,0,0-2-2q-1.08-.93-2.13-1.89a20.52,20.52,0,0,1-1.92-2,8.25,8.25,0,0,1-1.36-2.37v-.32a10.19,10.19,0,0,1-.8-1.56,5,5,0,0,1-.4-2,1.6,1.6,0,0,1-.24-1.29,2.77,2.77,0,0,0,0-1.28,1.08,1.08,0,0,1,.08-.44.69.69,0,0,0-.08-.52c.26-1.28.48-2.58.64-3.89a11.21,11.21,0,0,1,1.12-3.72,2.19,2.19,0,0,1,.84-1.17,2.57,2.57,0,0,0,.92-1.24,13.83,13.83,0,0,0,1.32-.92,8.06,8.06,0,0,1,1.33-.84A.72.72,0,0,1,96.42,4a1.68,1.68,0,0,0,.64-.48,7.89,7.89,0,0,1,3.65-1.77c1.36-.26,2.71-.48,4-.64a13.74,13.74,0,0,0,2.81.2c1,0,1.91,0,2.84,0a19.55,19.55,0,0,1,2.77.28A6.7,6.7,0,0,1,115.73,2.64Z"/><path class="cls-1" d="M143.38,3.13a23.72,23.72,0,0,1,5.21.08,18.82,18.82,0,0,0,5.13-.08l8.58.32a2.6,2.6,0,0,1,.8.52c.27.24.4.44.4.6V12.5a8.58,8.58,0,0,0-.4,1.21,8.89,8.89,0,0,1-.4,1.2,5.11,5.11,0,0,1-.6,1,2.2,2.2,0,0,1-1,.72,21.31,21.31,0,0,1-4.17.88,39.91,39.91,0,0,1-4.41.24,4.11,4.11,0,0,0,.12,1.89,1.55,1.55,0,0,1-.36,1.64,2.45,2.45,0,0,1,.44,2,12.44,12.44,0,0,0-.2,2.21,17.25,17.25,0,0,1,.28,4.89,27.3,27.3,0,0,0,0,4.89v5.61c-.21,0-.32.08-.32.24a.86.86,0,0,1,.4,1c0,.48-.08.85-.08,1.12l-.32-.32c0-.05,0-.05-.08,0a.45.45,0,0,0-.16.32,2.1,2.1,0,0,1,.64,1.28,8.22,8.22,0,0,1,0,1.57c0,.56-.12,1.13-.2,1.72a3.51,3.51,0,0,0,.12,1.6.86.86,0,0,1,.2.72.47.47,0,0,1-.52.48v.32l.32-.32a5.17,5.17,0,0,0,.08,2.37,2.88,2.88,0,0,1-.4,2.36,4.78,4.78,0,0,1,.36,2.37,17.6,17.6,0,0,1-.36,2.28,2.52,2.52,0,0,1-.28,1.24,2.41,2.41,0,0,0-.28,1.17c-.59.58-1.2,1.21-1.84,1.88a2.46,2.46,0,0,1-2.33.76,1,1,0,0,1-.8.32,1.45,1.45,0,0,1-1.36.2,8.64,8.64,0,0,0-1.69-.2,9.78,9.78,0,0,1-1.28-.6,9.21,9.21,0,0,0-1.28-.6,4.46,4.46,0,0,1-1.12-2.29,13.1,13.1,0,0,1-.2-2.76c0-1,.05-1.92.08-2.89a9.6,9.6,0,0,0-.28-2.64,3.26,3.26,0,0,0,.16-1.4c-.06-.46-.11-.91-.16-1.37a7.22,7.22,0,0,1,0-1.4,3.82,3.82,0,0,1,.36-1.44,9.18,9.18,0,0,1-.4-3.17c.05-1,.08-2.25.08-3.64a12.91,12.91,0,0,0-.16-1.89,11.45,11.45,0,0,1-.16-1.88l.32-.32a2.32,2.32,0,0,1-.32-1.2c0-.43,0-.86,0-1.29s0-.85,0-1.28a2.19,2.19,0,0,0-.4-1.28,11.74,11.74,0,0,1-.12-2.2,10.12,10.12,0,0,0-.12-2c.26-.1.36-.24.28-.4A1.77,1.77,0,0,0,139,27v-8.9a5.18,5.18,0,0,0-2.37-.68,5.32,5.32,0,0,1-2.12-.44,1.57,1.57,0,0,1-1.28-.24,2.4,2.4,0,0,0-1.29-.4,3.4,3.4,0,0,0-1.32-.2,1.21,1.21,0,0,1-1-.36,3.91,3.91,0,0,1-.92-.64c-.3-.27-.6-.56-.93-.88,0-1.61,0-3.34-.16-5.21s-.16-3.56-.16-5.05a1.56,1.56,0,0,1,1-.52,5.56,5.56,0,0,1,1,0,8,8,0,0,1,1,.12,1.56,1.56,0,0,0,1-.16q2.8-.24,6-.56a31.55,31.55,0,0,1,6-.08Z"/><path class="cls-1" d="M177.45,3.85a.86.86,0,0,1,.68.32,1.75,1.75,0,0,0,.68.48c.21.64.47,1.37.76,2.2s.6,1.69.92,2.57.66,1.73,1,2.56l.93,2.21a5.21,5.21,0,0,0,.68,2,5.57,5.57,0,0,1,.68,1.92c.26.43.51.85.72,1.25a4.08,4.08,0,0,0,.72,1,23.84,23.84,0,0,0,2-4.09c.57-1.5,1.14-2.94,1.73-4.33a1.24,1.24,0,0,0,.4-.88.86.86,0,0,1,.4-.8.86.86,0,0,1,.12-.64,7.4,7.4,0,0,1,.48-.84,8.46,8.46,0,0,0,.48-.85.9.9,0,0,0,.12-.64q.17-.39,0-.48t0-.48c-.27-.16-.2-.37.2-.64s.6-.48.6-.64c.11-.75.38-1.22.8-1.4a3,3,0,0,1,1.53-.2,15.88,15.88,0,0,1,1.88.28,3.39,3.39,0,0,0,1.72,0,3.07,3.07,0,0,1,2.09-.08,7.15,7.15,0,0,0,2.08.32,8.5,8.5,0,0,0,1.4.28,4.54,4.54,0,0,1,1.41.44L206.14,6a3.06,3.06,0,0,0-.52.8c-.19.38-.38.78-.56,1.2a9.25,9.25,0,0,1-.64,1.21,3,3,0,0,1-.69.8,8.18,8.18,0,0,0-.2,1.24,6.15,6.15,0,0,1-.2,1.24,5.43,5.43,0,0,0-.44,1,5,5,0,0,1-.44,1,30.58,30.58,0,0,0-2.28,3.88,24,24,0,0,1-2.45,4q-1.12,2.09-2.08,4.21T193.4,31a3.53,3.53,0,0,1-.65,1.28,2.15,2.15,0,0,0-.48,1.28V39l-.56.24.56.32a24.89,24.89,0,0,1-.24,3.25,12.74,12.74,0,0,0,0,3.49q-.24.15-.24.72a.72.72,0,0,0,.24.64,2.35,2.35,0,0,1-.16.84,2.59,2.59,0,0,0-.16.84c-.05,1.18-.05,2.35,0,3.53s.08,2.35.08,3.52a23.76,23.76,0,0,1-.24,3.37,13.47,13.47,0,0,1-1,3.37,2.29,2.29,0,0,1-1,.36,11.27,11.27,0,0,1-1.36.16q-.72,0-1.41.12a10.8,10.8,0,0,0-1.08.16,2.2,2.2,0,0,0-1-.12,2.49,2.49,0,0,1-1-.12,8.12,8.12,0,0,1-2.33-.8l-2.16-1.21a4.32,4.32,0,0,1-.12-1.36,2.61,2.61,0,0,0-.12-1.12c-.22-.16-.34-.29-.36-.4a.3.3,0,0,1,0-.28.43.43,0,0,0,.08-.2c0-.11-.11-.19-.32-.24a34,34,0,0,1,.12-6.41,32.57,32.57,0,0,0,.12-6.26l-.24-.56a7.6,7.6,0,0,0,.08-3.28,8.82,8.82,0,0,1-.08-3.13,15,15,0,0,1-.36-1.68,3.76,3.76,0,0,0-.52-1.44,1.31,1.31,0,0,1-.4-1,1.59,1.59,0,0,0-.41-1,6.72,6.72,0,0,0-1-3.36,25,25,0,0,1-1.6-3.37l-.56-.56a.45.45,0,0,0,.32-.16c.05,0,.05-.08,0-.08-.43-.16-.64-.4-.64-.72a1.86,1.86,0,0,0-.24-1v-.32h-.24a24.73,24.73,0,0,0-1.53-2.6,9.37,9.37,0,0,1-1.28-3c-.16-.26-.29-.5-.4-.72a2.16,2.16,0,0,1-.16-1,.35.35,0,0,1-.4-.4,1.28,1.28,0,0,0-.16-.72,5.57,5.57,0,0,0-.56-1.12,2,2,0,0,1-.32-1.13,5.36,5.36,0,0,1-.28-1,3.92,3.92,0,0,0-.52-1.24,7.42,7.42,0,0,1-.92-2.12A6.47,6.47,0,0,0,165,6.33a8.8,8.8,0,0,1-.36-1.2,1.61,1.61,0,0,1,0-1A11.19,11.19,0,0,1,167,3.41a19.17,19.17,0,0,1,2.52-.4c.86-.08,1.7-.14,2.53-.16s1.59-.07,2.28-.13a2.75,2.75,0,0,1,1.56.45A5.73,5.73,0,0,0,177.45,3.85Z"/><path class="cls-1" d="M222.65,1.84a4.49,4.49,0,0,1,1.52,2.81c.16,1.12.32,2.11.48,3a1.49,1.49,0,0,0-.16.93,1.2,1.2,0,0,1-.16.84,14.89,14.89,0,0,0-.24,4.17,26.22,26.22,0,0,1,0,4.16l-.32.32c.16.16.33.32.52.48s.2.38,0,.65q0,4.15-.08,8.69t-.48,8.62a17.9,17.9,0,0,1,0,5.37,17.9,17.9,0,0,0,0,5.37,12,12,0,0,0,3.65.72c1.25,0,2.48.15,3.68.28a13.92,13.92,0,0,1,3.41.8,6.36,6.36,0,0,1,2.81,2.2,25.29,25.29,0,0,1,.64,3.61,21.73,21.73,0,0,1,0,3.61,5.9,5.9,0,0,1,0,2,3.34,3.34,0,0,1-.84,1.77A9.52,9.52,0,0,1,234,63a31,31,0,0,1-3.49,0c-1.2-.06-2.41-.12-3.64-.2a31.2,31.2,0,0,0-3.61,0,25.7,25.7,0,0,0-3-.32c-1-.06-2.09-.12-3.16-.2s-2.11-.19-3.13-.33a16.05,16.05,0,0,1-2.8-.6,2.1,2.1,0,0,1-.92-.76,4.13,4.13,0,0,1-.45-.92,7.69,7.69,0,0,1-.24-1,2.92,2.92,0,0,0-.4-1.08,9.58,9.58,0,0,0,.16-3.49c-.16-1.15-.32-2.39-.48-3.73a59.39,59.39,0,0,1-.12-6.53q.12-3.24.12-6.69a16.12,16.12,0,0,0-.08-1.72,2.09,2.09,0,0,1,.4-1.49l-.32-.56q.24-4.8.32-9.18a76.24,76.24,0,0,0-.32-8.69,1.73,1.73,0,0,0,.32-.48c.06-.11.06-.16,0-.16h.16c.06,0,.08-.08.08-.24a1.38,1.38,0,0,1-.56-.64,2.56,2.56,0,0,1-.16-.89,7.07,7.07,0,0,1,.08-1,5.28,5.28,0,0,0,.08-.92.44.44,0,0,1-.12-.52,1.72,1.72,0,0,0,.12-.68l.32-.24a1.26,1.26,0,0,1-.36-.8c0-.32,0-.64,0-1v-1a1.85,1.85,0,0,0-.24-1,1.37,1.37,0,0,0,.28-.92,5.66,5.66,0,0,0-.12-.84q-.08-.41-.12-.84a1.21,1.21,0,0,1,.28-.85A3.45,3.45,0,0,0,210.63,2a3,3,0,0,1,1.6-.44,2.07,2.07,0,0,1,.88-.28c.32,0,.61,0,.88,0a25.25,25.25,0,0,1,4.49.4A13.71,13.71,0,0,0,222.65,1.84Z"/><path class="cls-1" d="M266.65,2.32h1.84a13.83,13.83,0,0,1,2.05.16,6.7,6.7,0,0,1,1.84.57,3.29,3.29,0,0,1,1.4,1.28,11.46,11.46,0,0,0,.6,2,3.73,3.73,0,0,1,.29,2,9.06,9.06,0,0,1-.08,2.64,13.22,13.22,0,0,0-.25,2.4,4.77,4.77,0,0,1-1.12,3.13,5.05,5.05,0,0,1-2.88,1.76,5.19,5.19,0,0,1-3,.44,29,29,0,0,0-3.24-.2.6.6,0,0,0-.85-.08.7.7,0,0,1-.84.08l-5.13.32q-.64.17-.6,1.05c0,.59,0,1.09,0,1.52,0,1,0,1.94,0,2.76a6.26,6.26,0,0,1-.36,2.37,2.77,2.77,0,0,0,1.72.24,4.58,4.58,0,0,1,1.73,0h4.25a20.82,20.82,0,0,1,2.08.56,3,3,0,0,1,1.6,1.44c.16.43.39.95.68,1.57a2,2,0,0,1,.2,1.56,4,4,0,0,1,.2,2.16,11.38,11.38,0,0,0-.2,2.09,4.88,4.88,0,0,0-.44,1.4,11.77,11.77,0,0,1-.32,1.48,3.93,3.93,0,0,1-.56,1.24,2.1,2.1,0,0,1-1.24.77,33,33,0,0,1-4,.52c-1.31.08-2.6.17-3.89.28a1.51,1.51,0,0,0-.76-.2c-.34,0-.57,0-.68,0-.27-.16-.39-.15-.36,0a3.2,3.2,0,0,1,0,.52,33.59,33.59,0,0,0,0,7.37l.56.32a35.69,35.69,0,0,1,5.85,0q2.81.24,5.85.24h.89A5.82,5.82,0,0,0,271,51.54,2.47,2.47,0,0,1,272.1,53a9,9,0,0,0-.16,2.4,9,9,0,0,1-.16,2.41c-.27.05-.43.16-.48.32a1,1,0,0,0,0,.48,1.75,1.75,0,0,1,0,.56,1.17,1.17,0,0,1-.36.64,1.66,1.66,0,0,1-.16.72c-.11.22-.24.46-.4.72a6.29,6.29,0,0,1-3.17,1.69,16.16,16.16,0,0,1-3.57.24c-1.22-.06-2.47-.14-3.72-.24a10.92,10.92,0,0,0-3.73.32,10.85,10.85,0,0,0-3.12,0,14.29,14.29,0,0,1-3.13,0,11.33,11.33,0,0,1-2.41-1,12.48,12.48,0,0,0-2.16-1,4.94,4.94,0,0,1-1.8-2,6.9,6.9,0,0,0-1.65-2.2V53.86a7.7,7.7,0,0,1-.12-1.6,9.28,9.28,0,0,0-.12-1.85c.11-.74.19-1.36.24-1.84s.16-1.09.33-1.84c0-1,0-2,0-3a25.34,25.34,0,0,1,.2-2.72,7.63,7.63,0,0,1-.65-3,21.29,21.29,0,0,0-.16-2.72V35l-.32-.24c0-2.29,0-4.54.12-6.73a68.82,68.82,0,0,0-.12-7l.32-.24q-.24-3.45-.24-6.65a25,25,0,0,0-.88-6.5,1,1,0,0,0,.8-.56,1.29,1.29,0,0,1-.24-1.08,5.38,5.38,0,0,1,.4-.84,5,5,0,0,0,.4-.8,1,1,0,0,0-.24-1,2,2,0,0,1,.77-.6,4.52,4.52,0,0,1,1-.33c.34-.08.69-.17,1-.28a2.53,2.53,0,0,0,.92-.48c1.55-.16,3.11-.3,4.69-.44a13.54,13.54,0,0,1,4.69.44,20.3,20.3,0,0,1,4.41,0,38.42,38.42,0,0,0,4.4.24,7.37,7.37,0,0,1,1.57.16A6.62,6.62,0,0,0,266.65,2.32Z"/></g></g></svg>